<svg width="1200" height="630" xmlns="http://www.w3.org/2000/svg">
  <defs>
    <linearGradient id="bg" x1="0%" y1="0%" x2="0%" y2="100%">
      <stop offset="0%" style="stop-color:#E8E4DC"/>
      <stop offset="100%" style="stop-color:#D8D4CC"/>
    </linearGradient>
    <linearGradient id="panel" x1="0%" y1="0%" x2="0%" y2="100%">
      <stop offset="0%" style="stop-color:#F0EDE6"/>
      <stop offset="100%" style="stop-color:#E0DDD6"/>
    </linearGradient>
  </defs>
  
  <rect width="1200" height="630" fill="url(#bg)"/>
  
  <rect x="0" y="0" width="1200" height="80" fill="url(#panel)" stroke="#C4C0B8" stroke-width="1"/>
  
  <circle cx="40" cy="40" r="6" fill="#D44F00"/>
  <text x="60" y="48" font-family="Barlow, Helvetica Neue, Helvetica, Arial, sans-serif" font-size="28" font-weight="500" letter-spacing="8" fill="#1A1916" text-transform="uppercase">АНС</text>
  <text x="60" y="68" font-family="Barlow, Helvetica Neue, Helvetica, Arial, sans-serif" font-size="12" font-weight="300" letter-spacing="2" fill="#A4A09A">Синтезатор · Е. А. Мурзин · 1958 – 1971</text>
  
  <circle cx="1100" cy="40" r="6" fill="#D44F00"/>
  <text x="1120" y="46" font-family="Barlow, Helvetica Neue, Helvetica, Arial, sans-serif" font-size="12" letter-spacing="2" fill="#A4A09A" text-transform="uppercase">Готов</text>
  
  <rect x="80" y="100" width="1040" height="320" fill="#000000" rx="4"/>
  
  <line x1="80" y1="180" x2="1120" y2="180" stroke="#1E1C18" stroke-width="1"/>
  <line x1="80" y1="260" x2="1120" y2="260" stroke="#1E1C18" stroke-width="1"/>
  <line x1="80" y1="340" x2="1120" y2="340" stroke="#1E1C18" stroke-width="1"/>
  
  <path d="M 100 200 Q 200 180, 300 220 T 500 200 T 700 240 T 900 180 T 1100 220" stroke="#D44F00" stroke-width="3" fill="none" opacity="0.8"/>
  <path d="M 120 280 Q 220 260, 320 300 T 520 280 T 720 320 T 920 260" stroke="#D44F00" stroke-width="2" fill="none" opacity="0.6"/>
  <path d="M 150 150 Q 250 130, 350 170 T 550 150 T 750 190" stroke="#D44F00" stroke-width="2" fill="none" opacity="0.4"/>
  
  <line x1="450" y1="100" x2="450" y2="420" stroke="#D44F00" stroke-width="2" opacity="0.9"/>
  <polygon points="450,100 445,110 455,110" fill="#D44F00"/>
  
  <text x="1140" y="220" font-family="Barlow, Helvetica Neue, Helvetica, Arial, sans-serif" font-size="10" fill="#A4A09A">A5</text>
  <text x="1140" y="232" font-family="Barlow, Helvetica Neue, Helvetica, Arial, sans-serif" font-size="8" fill="#A4A09A" opacity="0.6">880 Hz</text>
  
  <rect x="80" y="440" width="1040" height="40" fill="url(#panel)" rx="4"/>
  <line x1="80" y1="475" x2="1120" y2="475" stroke="#C4C0B8" stroke-width="1"/>
  
  <line x1="150" y1="460" x2="150" y2="480" stroke="#A4A09A" stroke-width="1"/>
  <text x="150" y="455" font-family="Barlow, Helvetica Neue, Helvetica, Arial, sans-serif" font-size="9" fill="#A4A09A" text-anchor="middle">0s</text>
  <line x1="550" y1="460" x2="550" y2="480" stroke="#A4A09A" stroke-width="1"/>
  <text x="550" y="455" font-family="Barlow, Helvetica Neue, Helvetica, Arial, sans-serif" font-size="9" fill="#A4A09A" text-anchor="middle">5s</text>
  <line x1="950" y1="460" x2="950" y2="480" stroke="#A4A09A" stroke-width="1"/>
  <text x="950" y="455" font-family="Barlow, Helvetica Neue, Helvetica, Arial, sans-serif" font-size="9" fill="#A4A09A" text-anchor="middle">10s</text>
  
  <rect x="80" y="500" width="1040" height="100" fill="url(#panel)" rx="4" stroke="#C4C0B8" stroke-width="1"/>
  
  <rect x="100" y="520" width="100" height="36" rx="4" fill="linear-gradient(180deg, #E05800 0%, #B84400 100%)"/>
  <text x="150" y="544" font-family="Barlow, Helvetica Neue, Helvetica, Arial, sans-serif" font-size="12" font-weight="500" fill="#FFFFFF" text-anchor="middle">▶ ПУСК</text>
  
  <rect x="220" y="520" width="80" height="36" rx="4" fill="#2A2824"/>
  <text x="260" y="544" font-family="Barlow, Helvetica Neue, Helvetica, Arial, sans-serif" font-size="10" fill="#FFFFFF" text-anchor="middle">РИСОВАТЬ</text>
  
  <text x="420" y="535" font-family="Barlow, Helvetica Neue, Helvetica, Arial, sans-serif" font-size="8" letter-spacing="2" fill="#A4A09A" text-transform="uppercase">СКОРОСТЬ</text>
  <rect x="420" y="545" width="100" height="6" rx="3" fill="#C0BDB6"/>
  <circle cx="475" cy="548" r="8" fill="#F0EDE6" stroke="#C4C0B8" stroke-width="1"/>
  
  <text x="540" y="535" font-family="Barlow, Helvetica Neue, Helvetica, Arial, sans-serif" font-size="8" letter-spacing="2" fill="#A4A09A" text-transform="uppercase">ГРОМКОСТЬ</text>
  <rect x="540" y="545" width="100" height="6" rx="3" fill="#C0BDB6"/>
  <circle cx="610" cy="548" r="8" fill="#F0EDE6" stroke="#C4C0B8" stroke-width="1"/>
  
  <circle cx="810" cy="550" r="14" fill="#2A2824" stroke="#C4C0B8" stroke-width="1"/>
  <text x="810" y="556" font-family="Barlow, Helvetica Neue, Helvetica, Arial, sans-serif" font-size="16" fill="#FFFFFF" text-anchor="middle">∿</text>
  <circle cx="840" cy="550" r="14" fill="#E0DDD6" stroke="#C4C0B8" stroke-width="1"/>
  <text x="840" y="556" font-family="Barlow, Helvetica Neue, Helvetica, Arial, sans-serif" font-size="14" fill="#605C58" text-anchor="middle">△</text>
  
  <text x="600" y="600" font-family="Barlow, Helvetica Neue, Helvetica, Arial, sans-serif" font-size="10" letter-spacing="4" fill="#A4A09A" text-anchor="middle">ВЕБ-ВЕРСИЯ ЛЕГЕНДАРНОГО СИНТЕЗАТОРА</text>
</svg>
