<svg width="1200" height="630" xmlns="http://www.w3.org/2000/svg">
  <defs>
    <linearGradient id="bg" x1="0%" y1="0%" x2="0%" y2="100%">
      <stop offset="0%" style="stop-color:#EDE9E0"/>
      <stop offset="100%" style="stop-color:#D8D4CC"/>
    </linearGradient>
    <linearGradient id="device" x1="0%" y1="0%" x2="0%" y2="100%">
      <stop offset="0%" style="stop-color:#E8E4DC"/>
      <stop offset="100%" style="stop-color:#C8C4BC"/>
    </linearGradient>
  </defs>
  
  <rect width="1200" height="630" fill="url(#bg)"/>
  
  <text x="60" y="80" font-family="Helvetica Neue, Helvetica, Arial, sans-serif" font-size="24" letter-spacing="8" fill="#9A9590" text-transform="uppercase">PHOTOPHON</text>
  <text x="1000" y="80" font-family="Helvetica Neue, Helvetica, Arial, sans-serif" font-size="24" letter-spacing="4" fill="#B8B4AC">PS-1</text>
  
  <rect x="60" y="120" width="1080" height="450" rx="12" fill="url(#device)" stroke="#CCC8C0" stroke-width="2"/>
  
  <rect x="90" y="150" width="480" height="270" fill="#111" rx="4"/>
  <circle cx="330" cy="285" r="80" fill="#0a0a0a"/>
  <circle cx="330" cy="285" r="60" fill="#111"/>
  <circle cx="330" cy="285" r="40" fill="#1a1a1a"/>
  <circle cx="330" cy="285" r="20" fill="#222"/>
  
  <circle cx="540" cy="400" r="8" fill="#D4580A"/>
  <text x="560" y="408" font-family="Helvetica Neue, Helvetica, Arial, sans-serif" font-size="14" letter-spacing="3" fill="#D4580A">ON</text>
  <text x="560" y="430" font-family="Helvetica Neue, Helvetica, Arial, sans-serif" font-size="12" letter-spacing="2" fill="#666">Luminance → Pitch</text>
  
  <rect x="580" y="180" width="8" height="140" fill="#222" rx="2"/>
  <rect x="580" y="290" width="8" height="30" fill="#D4580A" rx="2"/>
  
  <rect x="90" y="440" width="1020" height="100" fill="#F0EDE5" rx="4"/>
  <text x="110" y="460" font-family="Helvetica Neue, Helvetica, Arial, sans-serif" font-size="10" letter-spacing="3" fill="#9A9590">AUSGANG</text>
  <text x="1000" y="460" font-family="Helvetica Neue, Helvetica, Arial, sans-serif" font-size="10" letter-spacing="2" fill="#9A9590">220 Hz · MONO</text>
  
  <path d="M 110 490 L 140 485 L 170 495 L 200 480 L 230 500 L 260 475 L 290 505 L 320 470 L 350 510 L 380 465 L 410 515 L 440 460 L 470 520 L 500 455 L 530 525 L 560 450 L 590 530 L 620 445 L 650 535 L 680 440 L 710 540 L 740 435 L 770 545 L 800 430 L 830 550 L 860 425 L 890 555 L 920 420 L 950 560 L 980 415 L 1010 565" stroke="#2A2A2A" stroke-width="2" fill="none"/>
  
  <text x="90" y="580" font-family="Helvetica Neue, Helvetica, Arial, sans-serif" font-size="10" letter-spacing="3" fill="#9A9590" text-transform="uppercase">LAUTSTÄRKE</text>
  <text x="300" y="580" font-family="Helvetica Neue, Helvetica, Arial, sans-serif" font-size="10" letter-spacing="3" fill="#9A9590" text-transform="uppercase">EMPFINDL.</text>
  <text x="520" y="580" font-family="Helvetica Neue, Helvetica, Arial, sans-serif" font-size="10" letter-spacing="3" fill="#9A9590" text-transform="uppercase">GRUNDTON</text>
  
  <circle cx="140" cy="620" r="35" fill="url(#device)" stroke="#C0BCB4" stroke-width="2"/>
  <line x1="140" y1="620" x2="140" y2="595" stroke="#D4580A" stroke-width="4" stroke-linecap="round"/>
  
  <circle cx="350" cy="620" r="35" fill="url(#device)" stroke="#C0BCB4" stroke-width="2"/>
  <line x1="350" y1="620" x2="380" y2="620" stroke="#2A2A2A" stroke-width="4" stroke-linecap="round"/>
  
  <rect x="520" y="590" width="200" height="50" fill="#1E1E1E" rx="4"/>
  <text x="540" y="610" font-family="Helvetica Neue, Helvetica, Arial, sans-serif" font-size="12" letter-spacing="2" fill="#555">Hz</text>
  <text x="680" y="622" font-family="Helvetica Neue, Helvetica, Arial, sans-serif" font-size="32" fill="#D4580A" font-weight="300">220</text>
  
  <text x="600" y="700" font-family="Helvetica Neue, Helvetica, Arial, sans-serif" font-size="10" letter-spacing="4" fill="#B8B4AC" text-anchor="middle">A.G. Bell 1879 / 2026</text>
  <text x="600" y="720" font-family="Helvetica Neue, Helvetica, Arial, sans-serif" font-size="10" letter-spacing="3" fill="#B8B4AC" text-anchor="middle">WENIGER, ABER BESSER</text>
</svg>
